<svg height="268.459145" viewBox="0 0 334.17 240.7" width="372.496158" xmlns="http://www.w3.org/2000/svg"><g transform="translate(-12 -35)"><g fill="#231f20"><path d="m12.13 262.35h3.41v4.76h4.46v-4.76h3.4v13.08h-3.4v-5.43h-4.46v5.39h-3.41z"/><path d="m32.61 262.07c4.12 0 6.45 3 6.45 6.82s-2.33 6.81-6.45 6.81-6.45-3-6.45-6.81 2.33-6.82 6.45-6.82zm0 10.7c2.2 0 3-1.94 3-3.88s-.84-3.88-3-3.88-3 1.93-3 3.88.8 3.88 3 3.88z"/><path d="m53.13 270c0 3.79-1.74 5.68-5.7 5.68s-5.69-1.89-5.69-5.68v-7.67h3.4v7.87c0 1.69.62 2.55 2.29 2.55s2.29-.86 2.29-2.55v-7.87h3.41z"/><path d="m59 271c.08 1.54 1 2 2.48 2 1 0 2.08-.36 2.08-1.34 0-1.15-1.86-1.37-3.75-1.9s-3.81-1.31-3.81-3.71c0-2.86 2.88-4 5.33-4s5.22 1.27 5.24 4.22h-3.46c.06-1.19-1.06-1.58-2.11-1.58-.73 0-1.64.26-1.64 1.11 0 1 1.88 1.2 3.79 1.73s3.79 1.41 3.79 3.78c0 3.31-2.82 4.37-5.7 4.37s-5.66-1.32-5.68-4.67z"/><path d="m79.82 265.28h-3.9v10.15h-3.41v-10.15h-3.9v-2.93h11.21z"/><path d="m88.19 262.07c4.12 0 6.45 3 6.45 6.82s-2.33 6.81-6.45 6.81-6.45-3-6.45-6.81 2.33-6.82 6.45-6.82zm0 10.7c2.2 0 3-1.94 3-3.88s-.84-3.88-3-3.88-3 1.93-3 3.88.81 3.88 3 3.88z"/><path d="m97.37 262.35h3.5l4.54 8.06v-8.06h3.2v13.08h-3.5l-4.54-8.16v8.16h-3.2z"/><path d="m127.26 267a2.36 2.36 0 0 0 -2.64-2c-2.19 0-3 1.93-3 3.88s.85 3.88 3 3.88a2.43 2.43 0 0 0 2.64-2.42h3.41c-.18 3.37-2.66 5.35-6 5.35-4 0-6.52-3-6.52-6.81s2.56-6.82 6.52-6.82c2.82 0 5.88 1.8 6 4.95z"/><path d="m139.35 262.07c4.12 0 6.45 3 6.45 6.82s-2.33 6.81-6.45 6.81-6.45-3-6.45-6.81 2.33-6.82 6.45-6.82zm0 10.7c2.2 0 3-1.94 3-3.88s-.84-3.88-3-3.88-3 1.93-3 3.88.8 3.88 3 3.88z"/><path d="m148.58 262.35h5l2.26 8.72 2.26-8.72h5v13.08h-3.1v-9.93l-2.74 9.93h-2.61l-2.74-9.93v9.93h-3.21z"/><path d="m166.46 262.35h5l2.26 8.72 2.25-8.72h5v13.08h-3.2v-9.93l-2.75 9.93h-2.6l-2.74-9.93v9.93h-3.21z"/><path d="m195.62 270c0 3.79-1.74 5.68-5.69 5.68s-5.7-1.89-5.7-5.68v-7.67h3.41v7.87c0 1.69.62 2.55 2.29 2.55s2.29-.86 2.29-2.55v-7.87h3.4z"/><path d="m198.78 262.35h3.5l4.54 8.06v-8.06h3.2v13.08h-3.5l-4.52-8.16v8.16h-3.2z"/><path d="m213.3 262.35h3.41v13.08h-3.41z"/><path d="m230.36 265.28h-3.91v10.15h-3.4v-10.15h-3.91v-2.93h11.22z"/><path d="m239.42 270.55v4.88h-3.42v-4.88l-4.76-8.2h3.87l2.6 5.31 2.6-5.31h3.86z"/><path d="m261.28 267a2.37 2.37 0 0 0 -2.64-2c-2.2 0-3 1.93-3 3.88s.84 3.88 3 3.88a2.44 2.44 0 0 0 2.64-2.42h3.4c-.18 3.37-2.65 5.35-6 5.35-4 0-6.52-3-6.52-6.81s2.56-6.82 6.52-6.82c2.82 0 5.88 1.8 6 4.95z"/><path d="m273.37 262.07c4.12 0 6.45 3 6.45 6.82s-2.33 6.81-6.45 6.81-6.45-3-6.45-6.81 2.32-6.82 6.45-6.82zm0 10.7c2.19 0 3-1.94 3-3.88s-.84-3.88-3-3.88-3.05 1.93-3.05 3.88.85 3.88 3.05 3.88z"/><path d="m282.58 262.35h3.42v10.14h6.1v2.94h-9.51z"/><path d="m294.69 262.35h3.41v10.14h6.1v2.94h-9.51z"/><path d="m306.79 262.35h10.43v2.73h-7v2.28h6.42v2.64h-6.44v2.49h7.2v2.94h-10.61z"/><path d="m332.33 275.43h-2.19l-.21-1.43a4.45 4.45 0 0 1 -3.65 1.7c-3.95 0-6.51-3-6.51-6.81s2.56-6.82 6.51-6.82c2.72 0 5.61 1.45 5.92 4.73h-3.41c-.1-1.12-1.2-1.79-2.58-1.79-2.19 0-3 1.93-3 3.88s.85 3.88 3 3.88c1.69 0 2.83-.79 3-2h-2.39v-2.53h5.5z"/><path d="m335.43 262.35h10.42v2.73h-7v2.28h6.41v2.64h-6.41v2.49h7.15v2.94h-10.6z"/><path d="m12 236.48h33.65v-19.16a312.36 312.36 0 0 1 -33.65 3.78z"/><path d="m45.65 214.05v-20.85h31.5v13.43a130.16 130.16 0 0 0 33.64-17.26v-62.09h-33.64v37.93h-31.5v-37.93h-33.65v88.46a200.56 200.56 0 0 0 33.65-1.69z"/><path d="m77.15 236.48h33.64v-36.27c-11.75 4.25-23 7.69-33.64 10.43z"/><path d="m196.9 168h32.73c-2.12-20-11.47-33.71-28-39.78a244.82 244.82 0 0 1 -19.28 24c11.32 1.55 13.98 12.08 14.55 15.78z"/><path d="m168.5 125.68c-25.5 4.48-41.87 23.84-43.5 51.62 25.93-25.78 37.05-39.1 43.5-51.62z"/><path d="m179.31 211.85c-15.75 0-20.8-15.29-20.8-30a58 58 0 0 1 .49-7.85 156.48 156.48 0 0 1 -33.12 20.31c4.53 26 23.66 44.81 54.31 44.81 32 0 49.85-23.4 49.85-45.43h-33c-1.98 10.21-6.41 18.16-17.73 18.16z"/><path d="m313.13 193.65c-2 10.25-6.42 18.2-17.74 18.2-15.75 0-20.8-15.29-20.8-30s5.05-30 20.8-30c13.92 0 17 12.08 17.58 16.06h32.74c-2.91-27.38-19.43-43.13-49.4-43.28-33.65 0-55.37 22.78-55.37 57.2 0 32.27 20 57.2 55.37 57.2 32 0 49.86-23.4 49.86-45.43z"/></g><path d="m142.14 54.74c.57-.58 5.67 6 6.81 11.44 0 0 18.18 12 19.19 12.47s2.53-.81 5.16.18c0 0 8.41-10.87 13.19-8.68 0 0 2.06-1.44 3.16-1.12.85 0 .61 1.81.48 1.82s-.33-1.53-1.06.14a26 26 0 0 0 -1.53 3.76c-1.44 4.61-3.39 8.31-2.29 8.15 3.78-.55 2.57 2.15 9.71 1.23 9.18-1.18 27.31-2.69 27.8-2.26s-2.15 2.59-3 3 17.16.32 21.24-3.8c0 0 .18 3.31-7.71 4.51 0 0 11.48 0 13.57-2.29 0 0-1.29 3.86-11.82 4.55 0 0 13.8.76 14.75 1.49 0 0-7.62 2.62-14.68 1 0 0 12.17 2.09 13.44 2.61s-8 1.73-14.27.24c0 0 12.35 4 13 4.72s-8.89.73-14.64-2c0 0 1.91 2.84 8.46 5.75 0 0-6.21 1-8.86-.9 0 0 3.23 3.09 2.18 2.89a25.24 25.24 0 0 0 -4.11 0l-4.11 1.36s-2 2.07-4.26.81a3.15 3.15 0 0 1 -4.47.5s-1.63 1.33-2.58.6c0 0-3 1.6-3.15.75a2.43 2.43 0 0 1 -3.26 1.29l-2.58.59s-2.84.54-3.84.07l-2.52.33s-2.37.91-2.69-.24c0 0-2.1 1-2.47.06 0 0-2.63.86-2.42-.19 0 0-2.42 1.17-2.33-.73 0 0-3.67 2-3.31.18 0 0-2.83 1.91-2.8.28 0 0-2 .43-2-1.2 0 0-4.27-.56-2.49-2.67 0 0-2.38-1.83-2.79.28 0 0 4.27 9 5 9.71s-2.63 2.22-3.26 1.28c0 0-.55 5.64-2.93 3.81 0 0-.81 4.22-3.78 2.55 0 0-2 4.54-4.19 1.92 0 0-2.73 2.75-3.53-.14 0 0-2 2.06-3.11.49 0 0-2.47.07-2.85-2.19 0 0-3.79 1.18-3.45-3.41 0 0-3.46 2.34-4-3.24 0 0-4.26-.55-1.6-4.41 0 0-4.28-1.92.34-4.58 0 0-7.54-2 0-4.11s8.46-2.73 8.46-2.73a3.24 3.24 0 0 1 -2.59-2.15s-2.06-.67-2.37.91-2.68 1.12-3 .23c0 0-2.2 1.49-1.79-.62 0 0-1.75-.89-1.86-1.73 0 0-1.73.48-1.69-1.15 0 0-2.16-.14-2.74-1.35 0 0-.94.64-2-1.2 0 0-1.74.48-2-.94 0 0-2.11-.41-2.17-1.51 0 0-2.69-.25-2-2.57a2.48 2.48 0 0 1 -2.65-3.25s-3 1.34-3.22-1.72c0 0-2.22-1.25-1.92-2.83 0 0-2.06-2-1.54-3.31 0 0-4.32-.29-3.34-2.56 0 0-3.32-1.19-2.81-3.83 0 0-3.75-3.19-1.71-3.88 0 0-2.8-2.46-3.39-3.67s3.37-.44 4.17-.29c0 0-8.14-4.58-8.21-7.06 0 0 10.82 3.47 12.29 2.93 0 0-11.83-5.3-12.39-10.88 0 0 13.48 8.09 14.2 7.14 0 0-11.57-8-10.6-13 0 0 11.65 10.46 13.59 10.29 0 0-11.95-10.25-8.46-15.59 0 0 6.92 12.28 11.82 13.78 0 0-10-10.41-5.41-15.81 0 0 3.13 12.09 10.37 17 0 0-7.21-8-4-13.09 0 0 4.8 11.87 7.24 14.81s3.65 3.71 3.66 5.08-.04-2.72 1.32-4.1z" fill="#febe10"/><path d="m200.23 204.12a1.53 1.53 0 1 1 -1.53-1.52 1.54 1.54 0 0 1 1.53 1.52zm-2.87 0a1.35 1.35 0 1 0 1.34-1.34 1.35 1.35 0 0 0 -1.34 1.34zm.78-.83h.59c.12 0 .55 0 .55.41a.4.4 0 0 1 -.3.4c.17 0 .22.11.25.32a2.45 2.45 0 0 0 .09.51h-.23a2 2 0 0 1 -.08-.42c0-.26-.09-.32-.36-.32h-.28v.74h-.23zm.23.71h.36c.11 0 .32 0 .32-.25s-.2-.26-.32-.26h-.36z" fill="#231f20"/></g></svg>